<?xml version="1.0" encoding="UTF-8" standalone="no"?>
<svg xmlns:dc="http://purl.org/dc/elements/1.1/" xmlns:cc="http://creativecommons.org/ns#" xmlns:rdf="http://www.w3.org/1999/02/22-rdf-syntax-ns#" xmlns:svg="http://www.w3.org/2000/svg" xmlns="http://www.w3.org/2000/svg" version="1.1" viewBox="0 0 67.733332 67.733331" height="256" width="256">
    <metadata>
        <rdf:RDF>
            <cc:Work rdf:about="">
                <dc:format>image/svg+xml</dc:format>
                <dc:type rdf:resource="http://purl.org/dc/dcmitype/StillImage"/>
                <dc:title></dc:title>
            </cc:Work>
        </rdf:RDF>
    </metadata>
    <path d="M0 20.32l9.031 13.547L0 47.413V60.96l18.062-27.093L0 6.773z" fill-opacity=".2"/>
    <path d="M4.516 0l22.578 33.867L4.516 67.733h9.031l22.578-33.867L13.547 0z" fill-opacity=".733"/>
    <path d="M13.547 0l22.578 33.867-22.578 33.867h9.031L40.64 40.64l18.062 27.093h9.031L45.156 33.866 22.578 0z"/>
    <path d="M36.124 47.413l13.547 20.32h9.031L40.64 40.64z" fill-opacity=".733"/>
    <path d="M0 6.773l18.062 27.093L0 60.96v6.773h4.516l22.578-33.867L4.516 0H0zm31.609 47.413l9.031 13.547h9.031l-13.547-20.32z" fill-opacity=".467"/>
    <path d="M27.093 60.96l4.516 6.773h9.031l-9.031-13.547z" fill-opacity=".2"/>
</svg>
