<?xml version="1.0" encoding="UTF-8" standalone="no"?>
<svg xmlns:dc="http://purl.org/dc/elements/1.1/" xmlns:cc="http://creativecommons.org/ns#" xmlns:rdf="http://www.w3.org/1999/02/22-rdf-syntax-ns#" xmlns:svg="http://www.w3.org/2000/svg" xmlns="http://www.w3.org/2000/svg" version="1.1" viewBox="0 0 67.733332 67.733331" height="256" width="256">
   <metadata>
      <rdf:RDF>
         <cc:Work rdf:about="">
            <dc:format>image/svg+xml</dc:format>
            <dc:type rdf:resource="http://purl.org/dc/dcmitype/StillImage" />
            <dc:title></dc:title>
         </cc:Work>
      </rdf:RDF>
   </metadata>
   <g transform="translate(0,-229.26668)">
      <path d="M -3.5234382e-6,249.58668 9.0311079,263.13335 -3.5234382e-6,276.68002 v 13.54667 L 18.06222,263.13335 -3.5234382e-6,236.04001 Z" style="opacity:1;fill:#ffffff;fill-opacity:0.2;stroke:none;stroke-width:0.28266668;stroke-miterlimit:4;stroke-dasharray:none;stroke-opacity:1" />
      <path d="M 4.5155513,229.26668 27.093332,263.13335 4.5155524,297.00002 h 9.0311116 l 22.57778,-33.86667 -22.57778,-33.86667 z" style="opacity:1;fill:#ffffff;fill-opacity:0.73333333;stroke:none;stroke-width:0.28266668;stroke-miterlimit:4;stroke-dasharray:none;stroke-opacity:1" />
      <path d="m 13.546665,229.26668 22.57778,33.86667 -22.57778,33.86667 h 9.031111 l 18.062225,-27.09334 18.062224,27.09334 h 9.031113 L 45.155557,263.13335 22.577776,229.26668 Z" style="fill:#ffffff;fill-opacity:1;stroke:none;stroke-width:0.28266668;stroke-miterlimit:4;stroke-dasharray:none;stroke-opacity:1" />
      <path style="opacity:1;fill:#ffffff;fill-opacity:0.73333333;stroke:none;stroke-width:0.28266668;stroke-miterlimit:4;stroke-dasharray:none;stroke-opacity:1" d="m 36.124444,276.68002 13.546667,20.32 h 9.031113 L 40.64,269.90668 Z" />
      <path style="opacity:1;fill:#ffffff;fill-opacity:0.46666667;stroke:none;stroke-width:0.28266668;stroke-miterlimit:4;stroke-dasharray:none;stroke-opacity:1" d="M -3.5234382e-6,236.04001 18.06222,263.13335 -3.5234382e-6,290.22669 v 6.77333 H 4.5155524 L 27.093333,263.13335 4.5155524,229.26668 H -3.5234382e-6 Z" />
      <path d="m 31.608889,283.45335 9.03111,13.54667 h 9.031112 l -13.546667,-20.32 z" style="opacity:1;fill:#ffffff;fill-opacity:0.46666667;stroke:none;stroke-width:0.28266668;stroke-miterlimit:4;stroke-dasharray:none;stroke-opacity:1" />
      <path d="m 27.093332,290.22669 4.515557,6.77333 H 40.64 l -9.031111,-13.54667 z" style="opacity:1;fill:#ffffff;fill-opacity:0.2;stroke:none;stroke-width:0.28266668;stroke-miterlimit:4;stroke-dasharray:none;stroke-opacity:1" />
   </g>
</svg>